<mxfile host="65bd71144e">
    <diagram id="NbcP0fNL83pr_8lRwlyO" name="Page-1">
        <mxGraphModel dx="867" dy="602" grid="1" gridSize="10" guides="1" tooltips="1" connect="1" arrows="1" fold="1" page="1" pageScale="1" pageWidth="850" pageHeight="1100" math="0" shadow="0">
            <root>
                <mxCell id="0"/>
                <mxCell id="1" parent="0"/>
                <mxCell id="2" value="Components" style="swimlane;fontStyle=0;childLayout=stackLayout;horizontal=1;startSize=30;horizontalStack=0;resizeParent=1;resizeParentMax=0;resizeLast=0;collapsible=1;marginBottom=0;whiteSpace=wrap;html=1;" vertex="1" parent="1">
                    <mxGeometry x="40" y="40" width="160" height="280" as="geometry"/>
                </mxCell>
                <mxCell id="3" value="&lt;b style=&quot;font-size: 14px;&quot;&gt;&lt;span style=&quot;background-color: initial;&quot;&gt;Imports:&lt;/span&gt;&lt;br&gt;&lt;/b&gt;&lt;br&gt;&lt;strong style=&quot;background-color: initial;&quot;&gt;&lt;code&gt;toast&lt;/code&gt;&lt;/strong&gt;&lt;span style=&quot;background-color: initial;&quot;&gt;: Used for displaying notification messages to the user.&lt;br&gt;&lt;/span&gt;&lt;br&gt;&lt;strong style=&quot;background-color: initial;&quot;&gt;&lt;code&gt;toastStyle&lt;/code&gt;&lt;/strong&gt;&lt;span style=&quot;background-color: initial;&quot;&gt;: Presumably a function to style the toast notifications.&lt;br&gt;&lt;/span&gt;&lt;br&gt;&lt;strong style=&quot;background-color: initial;&quot;&gt;&lt;code&gt;Game&lt;/code&gt;&lt;/strong&gt;&lt;span style=&quot;background-color: initial;&quot;&gt;: Represents the game state and rules.&lt;br&gt;&lt;/span&gt;&lt;br&gt;&lt;strong style=&quot;background-color: initial;&quot;&gt;&lt;code&gt;ThisTurn&lt;/code&gt;&lt;/strong&gt;&lt;span style=&quot;background-color: initial;&quot;&gt;: Represents the current turn and the players involved.&lt;/span&gt;" style="text;strokeColor=none;fillColor=none;align=left;verticalAlign=middle;spacingLeft=4;spacingRight=4;overflow=hidden;points=[[0,0.5],[1,0.5]];portConstraint=eastwest;rotatable=0;whiteSpace=wrap;html=1;" vertex="1" parent="2">
                    <mxGeometry y="30" width="160" height="250" as="geometry"/>
                </mxCell>
                <mxCell id="6" value="&lt;code&gt;changeTurn&lt;/code&gt;" style="swimlane;fontStyle=0;childLayout=stackLayout;horizontal=1;startSize=30;horizontalStack=0;resizeParent=1;resizeParentMax=0;resizeLast=0;collapsible=1;marginBottom=0;whiteSpace=wrap;html=1;" vertex="1" parent="1">
                    <mxGeometry x="240" y="40" width="200" height="400" as="geometry"/>
                </mxCell>
                <mxCell id="7" value="&lt;b style=&quot;font-size: 14px;&quot;&gt;&lt;span style=&quot;background-color: initial;&quot;&gt;&lt;br&gt;&lt;/span&gt;&lt;/b&gt;This function actually performs the logic to change the turn from the current player to the opponent.&lt;b style=&quot;font-size: 14px;&quot;&gt;&lt;span style=&quot;background-color: initial;&quot;&gt;&lt;br&gt;&lt;br&gt;&lt;/span&gt;&lt;/b&gt;&lt;strong&gt;&lt;font style=&quot;font-size: 14px;&quot;&gt;Logic:&lt;br&gt;&lt;/font&gt;&lt;/strong&gt;&lt;b style=&quot;font-size: 14px;&quot;&gt;&lt;span style=&quot;background-color: initial;&quot;&gt;&lt;br&gt;&lt;/span&gt;&lt;/b&gt;&lt;span style=&quot;background-color: initial;&quot;&gt;It creates a new &lt;/span&gt;&lt;code&gt;ThisTurn&lt;/code&gt;&lt;span style=&quot;background-color: initial;&quot;&gt; object where:&lt;br&gt;&lt;/span&gt;&lt;span style=&quot;background-color: initial;&quot;&gt;&lt;br&gt;The &lt;/span&gt;&lt;code&gt;opponentPlayer&lt;/code&gt;&lt;span style=&quot;background-color: initial;&quot;&gt; becomes the &lt;/span&gt;&lt;code&gt;turnPlayer&lt;/code&gt;&lt;span style=&quot;background-color: initial;&quot;&gt;.&lt;/span&gt;&lt;br&gt;&lt;span style=&quot;background-color: initial;&quot;&gt;&lt;br&gt;The original &lt;/span&gt;&lt;code&gt;turnPlayer&lt;/code&gt;&lt;span style=&quot;background-color: initial;&quot;&gt; becomes the &lt;/span&gt;&lt;code&gt;opponentPlayer&lt;/code&gt;&lt;span style=&quot;background-color: initial;&quot;&gt;.&lt;/span&gt;&lt;br&gt;&lt;span style=&quot;background-color: initial;&quot;&gt;&lt;br&gt;The dice array is reset (empty).&lt;/span&gt;&lt;br&gt;&lt;span style=&quot;background-color: initial;&quot;&gt;The &lt;/span&gt;&lt;code&gt;beginning&lt;/code&gt;&lt;span style=&quot;background-color: initial;&quot;&gt; flag is set to &lt;/span&gt;&lt;code&gt;false&lt;/code&gt;&lt;span style=&quot;background-color: initial;&quot;&gt;.&lt;/span&gt;&lt;br&gt;&lt;span style=&quot;background-color: initial;&quot;&gt;&lt;br&gt;A success message is generated using the icon of the new &lt;/span&gt;&lt;code&gt;turnPlayer&lt;/code&gt;&lt;span style=&quot;background-color: initial;&quot;&gt;, which is displayed as a toast notification.&lt;/span&gt;&lt;br&gt;&lt;h3&gt;&lt;/h3&gt;" style="text;strokeColor=none;fillColor=none;align=left;verticalAlign=middle;spacingLeft=4;spacingRight=4;overflow=hidden;points=[[0,0.5],[1,0.5]];portConstraint=eastwest;rotatable=0;whiteSpace=wrap;html=1;" vertex="1" parent="6">
                    <mxGeometry y="30" width="200" height="370" as="geometry"/>
                </mxCell>
                <mxCell id="8" value="Summary" style="swimlane;fontStyle=0;childLayout=stackLayout;horizontal=1;startSize=30;horizontalStack=0;resizeParent=1;resizeParentMax=0;resizeLast=0;collapsible=1;marginBottom=0;whiteSpace=wrap;html=1;fontSize=14;" vertex="1" parent="1">
                    <mxGeometry x="480" y="40" width="160" height="320" as="geometry"/>
                </mxCell>
                <mxCell id="9" value="&lt;font style=&quot;font-size: 12px;&quot;&gt;&lt;strong&gt;Purpose&lt;/strong&gt;: This code effectively manages player turns within a game.&lt;/font&gt;" style="text;strokeColor=none;fillColor=none;align=left;verticalAlign=middle;spacingLeft=4;spacingRight=4;overflow=hidden;points=[[0,0.5],[1,0.5]];portConstraint=eastwest;rotatable=0;whiteSpace=wrap;html=1;fontSize=14;" vertex="1" parent="8">
                    <mxGeometry y="30" width="160" height="70" as="geometry"/>
                </mxCell>
                <mxCell id="10" value="&lt;font style=&quot;font-size: 12px;&quot;&gt;&lt;strong&gt;User Feedback&lt;/strong&gt;: It provides immediate feedback through toast notifications whenever the turn changes.&lt;/font&gt;" style="text;strokeColor=none;fillColor=none;align=left;verticalAlign=middle;spacingLeft=4;spacingRight=4;overflow=hidden;points=[[0,0.5],[1,0.5]];portConstraint=eastwest;rotatable=0;whiteSpace=wrap;html=1;fontSize=14;" vertex="1" parent="8">
                    <mxGeometry y="100" width="160" height="100" as="geometry"/>
                </mxCell>
                <mxCell id="11" value="&lt;font style=&quot;font-size: 12px;&quot;&gt;&lt;strong&gt;State Management&lt;/strong&gt;: The &lt;code&gt;ThisTurn&lt;/code&gt; class is utilized to encapsulate the state of the turn, ensuring the gameâ€™s state is consistently updated.&lt;/font&gt;" style="text;strokeColor=none;fillColor=none;align=left;verticalAlign=middle;spacingLeft=4;spacingRight=4;overflow=hidden;points=[[0,0.5],[1,0.5]];portConstraint=eastwest;rotatable=0;whiteSpace=wrap;html=1;fontSize=14;" vertex="1" parent="8">
                    <mxGeometry y="200" width="160" height="120" as="geometry"/>
                </mxCell>
            </root>
        </mxGraphModel>
    </diagram>
</mxfile>